/* XPM */
static char * barra2_xpm[] = {
"30 15 256 2",
"  	c #000000",
". 	c #0000AA",
"+ 	c #00AA00",
"@ 	c #00AAAA",
"# 	c #AA0000",
"$ 	c #AA00AA",
"% 	c #AA5500",
"& 	c #AAAAAA",
"* 	c #555555",
"= 	c #5555FF",
"- 	c #55FF55",
"; 	c #55FFFF",
"> 	c #FF5555",
", 	c #FF55FF",
"' 	c #FFFF55",
") 	c #FFFFFF",
"! 	c #000000",
"~ 	c #101010",
"{ 	c #202020",
"] 	c #353535",
"^ 	c #454545",
"/ 	c #555555",
"( 	c #656565",
"_ 	c #757575",
": 	c #8A8A8A",
"< 	c #9A9A9A",
"[ 	c #AAAAAA",
"} 	c #BABABA",
"| 	c #CACACA",
"1 	c #DFDFDF",
"2 	c #EFEFEF",
"3 	c #FFFFFF",
"4 	c #0000FF",
"5 	c #4100FF",
"6 	c #8200FF",
"7 	c #BE00FF",
"8 	c #FF00FF",
"9 	c #FF00BE",
"0 	c #FF0082",
"a 	c #FF0041",
"b 	c #FF0000",
"c 	c #FF4100",
"d 	c #FF8200",
"e 	c #FFBE00",
"f 	c #FFFF00",
"g 	c #BEFF00",
"h 	c #82FF00",
"i 	c #41FF00",
"j 	c #00FF00",
"k 	c #00FF41",
"l 	c #00FF82",
"m 	c #00FFBE",
"n 	c #00FFFF",
"o 	c #00BEFF",
"p 	c #0082FF",
"q 	c #0041FF",
"r 	c #8282FF",
"s 	c #9E82FF",
"t 	c #BE82FF",
"u 	c #DF82FF",
"v 	c #FF82FF",
"w 	c #FF82DF",
"x 	c #FF82BE",
"y 	c #FF829E",
"z 	c #FF8282",
"A 	c #FF9E82",
"B 	c #FFBE82",
"C 	c #FFDF82",
"D 	c #FFFF82",
"E 	c #DFFF82",
"F 	c #BEFF82",
"G 	c #9EFF82",
"H 	c #82FF82",
"I 	c #82FF9E",
"J 	c #82FFBE",
"K 	c #82FFDF",
"L 	c #82FFFF",
"M 	c #82DFFF",
"N 	c #82BEFF",
"O 	c #829EFF",
"P 	c #BABAFF",
"Q 	c #CABAFF",
"R 	c #DFBAFF",
"S 	c #EFBAFF",
"T 	c #FFBAFF",
"U 	c #FFBAEF",
"V 	c #FFBADF",
"W 	c #FFBACA",
"X 	c #FFBABA",
"Y 	c #FFCABA",
"Z 	c #FFDFBA",
"` 	c #FFEFBA",
" .	c #FFFFBA",
"..	c #EFFFBA",
"+.	c #DFFFBA",
"@.	c #CAFFBA",
"#.	c #BAFFBA",
"$.	c #BAFFCA",
"%.	c #BAFFDF",
"&.	c #BAFFEF",
"*.	c #BAFFFF",
"=.	c #BAEFFF",
"-.	c #BADFFF",
";.	c #BACAFF",
">.	c #000071",
",.	c #1C0071",
"'.	c #390071",
").	c #550071",
"!.	c #710071",
"~.	c #710055",
"{.	c #710039",
"].	c #71001C",
"^.	c #710000",
"/.	c #711C00",
"(.	c #713900",
"_.	c #715500",
":.	c #717100",
"<.	c #557100",
"[.	c #397100",
"}.	c #1C7100",
"|.	c #007100",
"1.	c #00711C",
"2.	c #007139",
"3.	c #007155",
"4.	c #007171",
"5.	c #005571",
"6.	c #003971",
"7.	c #001C71",
"8.	c #393971",
"9.	c #453971",
"0.	c #553971",
"a.	c #613971",
"b.	c #713971",
"c.	c #713961",
"d.	c #713955",
"e.	c #713945",
"f.	c #713939",
"g.	c #714539",
"h.	c #715539",
"i.	c #716139",
"j.	c #717139",
"k.	c #617139",
"l.	c #557139",
"m.	c #457139",
"n.	c #397139",
"o.	c #397145",
"p.	c #397155",
"q.	c #397161",
"r.	c #397171",
"s.	c #396171",
"t.	c #395571",
"u.	c #394571",
"v.	c #515171",
"w.	c #595171",
"x.	c #615171",
"y.	c #695171",
"z.	c #715171",
"A.	c #715169",
"B.	c #715161",
"C.	c #715159",
"D.	c #715151",
"E.	c #715951",
"F.	c #716151",
"G.	c #716951",
"H.	c #717151",
"I.	c #697151",
"J.	c #617151",
"K.	c #597151",
"L.	c #517151",
"M.	c #517159",
"N.	c #517161",
"O.	c #517169",
"P.	c #517171",
"Q.	c #516971",
"R.	c #516171",
"S.	c #515971",
"T.	c #000041",
"U.	c #100041",
"V.	c #200041",
"W.	c #310041",
"X.	c #410041",
"Y.	c #410031",
"Z.	c #410020",
"`.	c #410010",
" +	c #410000",
".+	c #411000",
"++	c #412000",
"@+	c #413100",
"#+	c #414100",
"$+	c #314100",
"%+	c #204100",
"&+	c #104100",
"*+	c #004100",
"=+	c #004110",
"-+	c #004120",
";+	c #004131",
">+	c #004141",
",+	c #003141",
"'+	c #002041",
")+	c #001041",
"!+	c #202041",
"~+	c #282041",
"{+	c #312041",
"]+	c #392041",
"^+	c #412041",
"/+	c #412039",
"(+	c #412031",
"_+	c #412028",
":+	c #412020",
"<+	c #412820",
"[+	c #413120",
"}+	c #413920",
"|+	c #414120",
"1+	c #394120",
"2+	c #314120",
"3+	c #284120",
"4+	c #204120",
"5+	c #204128",
"6+	c #204131",
"7+	c #204139",
"8+	c #204141",
"9+	c #203941",
"0+	c #203141",
"a+	c #202841",
"b+	c #2D2D41",
"c+	c #312D41",
"d+	c #352D41",
"e+	c #3D2D41",
"f+	c #412D41",
"g+	c #412D3D",
"h+	c #412D35",
"i+	c #412D31",
"j+	c #412D2D",
"k+	c #41312D",
"l+	c #41352D",
"m+	c #413D2D",
"n+	c #41412D",
"o+	c #3D412D",
"p+	c #35412D",
"q+	c #31412D",
"r+	c #2D412D",
"s+	c #2D4131",
"t+	c #2D4135",
"u+	c #2D413D",
"v+	c #2D4141",
"w+	c #2D3D41",
"x+	c #2D3541",
"y+	c #2D3141",
"z+	c #000000",
"A+	c #000000",
"B+	c #000000",
"C+	c #000000",
"D+	c #000000",
"E+	c #000000",
"F+	c #000000",
"G+	c #000000",
"^+w.w.w.w.^+  !+  !+  !+  !+      < ^ : w.  !+z.w.w.w.!+!+!+",
") ) ) } V : ^+z.w.w.w.w.w.w.I.I.I.: ^ : D.^+< z.w.w.w.w.w.!+",
": z.w.w.z.z.I.< < < K.< : : : : : < ^ z.: D.z.a.w.9.9.^ ^ ^ ",
"!+^ ^ ^ ^ !+          !+  V.!+    : ^ z.D.V.!+^ 8+9.^ !+!+!+",
"!+O r O s z.D.I.I.I.I.^ ^ ^ ^ ^ D.z % % ].++^ z.9.r t.!+!+^ ",
"!+P.O w.a.z.: < < } } } } < Y Y V z > > > ].f.w.w.w.t.!+!+^ ",
"I.: P.: z.z.h.z.I.: : : : : _._.z > y > a > {.D.w.9.t.^ ^ !+",
"} } ;.;.< : D.h.w.z.z.z.z.I.h.h.> > y a a > /.z.P.w.P.L.L.^ ",
"^ ^ ^ ^ ^ D.^ : : : z.z.I.I.I.f.> > > a > > /.D.^ ^ t.^ ^ !+",
"!+w.w.w.I.I.: < < : z.I.I.I.I.f.].> a a > % /.^ w.t.9.!+!+!+",
"!+P.w.w.z.w.z.w.D.^ ^ ^ ^ ^ ^ ^ D.> > > > f.++^ w.w.t.!+!+^ ",
"9.w.P.w.w.D.  !+!+  '+!+'+      ++f./././.  !+t.9.9.w.8+8+!+",
"} } < < V Y ++^+!+!+!+!+^+!+!+!+8+z.^ h.D.D.< : z.w.w.L.L.^ ",
"D.D.^ ^ ^ D.z.} } } } } } } } } : : ^+z.D.!+D.^ ^ ^ ^ w.w.^ ",
"!+^ 8+^ ^ !+  !+    !+!+    !+!+!+P.^ w.z.!+!+^ 8+^ ^ !+!+!+"};
